<svg height="150" viewBox="0 0 560 150" width="539" xmlns="http://www.w3.org/2000/svg" xmlns:xlink="http://www.w3.org/1999/xlink"><defs><path id="a" d="m167.148686 58.3096538c.117209-.4627751.234418-.9255501.351627-1.3883251 5.1572-20.2464076-7.384173-44.3107091-28.716229-56.9213287 9.376728 12.4949258 13.479047 27.650808 9.845565 40.8398964-.351628 1.1569376-.703255 2.3138751-1.172091 3.4708127-.468837-.3470813-1.054882-.6941625-1.875346-1.0412438 0 0-21.214846-12.9577008-44.187829-35.74937106-.586046-.57846879 12.306955 18.16391996 26.840883 33.31980216-6.915337-3.817894-26.02042-17.5854511-38.2101656-28.4606644 1.5237183 2.429569 3.2818547 4.8591379 5.1572003 7.0573193 10.0799823 12.7263133 23.3246103 28.3449705 39.1478383 40.3771213-11.134864 6.7102379-26.840883 7.2887067-42.429693 0-3.8679002-1.7354064-7.5013822-3.9335877-10.900446-6.3631566 6.5637094 10.4124381 16.7609008 19.4365512 29.185065 24.758464 14.768346 6.247463 29.536692 5.9003817 40.437138.1156938s.117209 0 .117209-.1156938c.468837-.2313875.937673-.5784687 1.406509-.8098563 5.27441-2.6609564 15.58881-5.3219128 21.214847 5.3219129 1.640927 2.4295689 4.571155-11.453682-6.212082-24.4113828z"/><filter id="b" height="131.3%" width="127.7%" x="-16%" y="-18.1%"><feOffset dx="-2" dy="-2" in="SourceAlpha" result="shadowOffsetOuter1"/><feGaussianBlur in="shadowOffsetOuter1" result="shadowBlurOuter1" stdDeviation="4"/><feColorMatrix in="shadowBlurOuter1" values="0 0 0 0 0   0 0 0 0 0   0 0 0 0 0  0 0 0 0.5 0"/></filter></defs><g fill="none" fill-rule="evenodd"><text fill="#767f87" font-family="Helvetica-Bold, Helvetica" font-size="85" font-weight="bold" letter-spacing="1.5"><tspan x="210.796" y="105">Conbini</tspan></text><g fill-rule="nonzero"><path d="m19 33.7158375c0 3.0920847 2.5752964 5.6689179 5.6187413 5.6689179h18.9163842l9.4113006 64.2789206c1.311046 8.901656 6.0869857 14.336324 15.0769334 14.336324h70.6550435c2.809658 0 5.291363-2.108274 5.291363-5.247269 0-3.138985-2.481705-5.247217-5.291363-5.247217h-69.1567189c-2.9030579 0-4.6822524-1.967743-5.1504969-5.0131l-1.0300802-6.8401795h75.712237c9.129951 0 13.859383-5.434608 15.217224-14.5236637l4.495454-30.124942c.093016-.7495614.233978-1.8271758.233978-2.48309 0-3.5606086-2.388689-5.9968751-6.696193-5.9968751h-96.594806l-1.0300801-6.9338268c-.7024146-5.0130037-2.8562623-7.5898369-9.2709136-7.5898369h-20.789266c-3.0434449 0-5.6187413 2.6236568-5.6187413 5.7158375zm44 104.8073755c0 5.841029 4.682163 10.476787 10.4768346 10.476787 5.8874281 0 10.5231654-4.635758 10.5231654-10.476787 0-5.841124-4.6357373-10.523213-10.5231654-10.523213-5.7946716 0-10.4768346 4.682089-10.4768346 10.523213zm55 0c0 5.841029 4.717611 10.476787 10.545471 10.476787 5.828807 0 10.454529-4.635758 10.454529-10.476787 0-5.841124-4.625722-10.523213-10.454529-10.523213-5.82786 0-10.545471 4.682089-10.545471 10.523213z" fill="#767f87"/><use fill="#000" filter="url(#b)" xlink:href="#a"/><use fill="#f05138" xlink:href="#a"/></g></g></svg>